<svg id="b540e1b1-7820-40ff-aa1f-23246f677704" data-name="Layer 1" xmlns="http://www.w3.org/2000/svg" xmlns:xlink="http://www.w3.org/1999/xlink" viewBox="0 0 1000 1000"><defs><style>.b7521e3a-9298-461d-989b-57d76765b8cf{opacity:0.5;}.e9ce1efc-cf5b-47ca-ad90-c3cdbf7f354e{fill:#00fccf;}.f0fe58a3-014a-4da5-b0ef-a28c8eb31afd{fill:#7c4ff9;}.adc21087-b54d-415c-8804-99b25d443dce{fill:#6944f2;}.b741c7e8-7970-4585-a66f-429e1dffb345{fill:#6736e4;}.ffeb5e13-b586-4625-86d0-4c41493d392f{fill:url(#b2526d6e-e878-492a-85bc-8394b44ddc98);}.fba797c1-79d4-4a78-b466-6f0f79451761{fill:url(#b513f336-fa84-4fd2-bd38-8b62214a83f7);}.e95f9f2d-4613-4ff6-ac00-0d22c1bd0214{fill:url(#af8e8520-5b9a-40b2-8b9d-e49f1650e489);}</style><linearGradient id="b2526d6e-e878-492a-85bc-8394b44ddc98" x1="219.1" y1="416.08" x2="290.97" y2="726.53" gradientUnits="userSpaceOnUse"><stop offset="0" stop-color="#5a37ef" stop-opacity="0"/><stop offset="1" stop-color="#5a37ef"/></linearGradient><linearGradient id="b513f336-fa84-4fd2-bd38-8b62214a83f7" x1="324.49" y1="336.73" x2="206.73" y2="595.18" gradientUnits="userSpaceOnUse"><stop offset="0" stop-color="#5529dd" stop-opacity="0"/><stop offset="1" stop-color="#5529dd"/></linearGradient><linearGradient id="af8e8520-5b9a-40b2-8b9d-e49f1650e489" x1="887.29" y1="835.79" x2="410.95" y2="501.12" gradientUnits="userSpaceOnUse"><stop offset="0" stop-color="#00fab9" stop-opacity="0"/><stop offset="1" stop-color="#00fab9"/></linearGradient></defs><title>Logo_PortraitDark copy</title><path class="b7521e3a-9298-461d-989b-57d76765b8cf" d="M196.94,305.88c7.93-4.26,15.91-8.53,23.85-12.83A222.76,222.76,0,0,0,196.94,305.88Z"/><path class="e9ce1efc-cf5b-47ca-ad90-c3cdbf7f354e" d="M696.5,804A303.43,303.43,0,0,1,453.33,682.38,227.68,227.68,0,0,0,544.52,500,152,152,0,0,0,804,607.49L911.44,714.93A303,303,0,0,1,696.5,804Z"/><path class="e9ce1efc-cf5b-47ca-ad90-c3cdbf7f354e" d="M453.33,317.62A302.61,302.61,0,0,0,392.53,500a152,152,0,0,0-303.88-4.77c1.6-80.05,44.54-149.92,108.29-189.35,7.93-4.26,15.91-8.53,23.85-12.83A.39.39,0,0,1,221,293a0,0,0,0,1,0,0,228.23,228.23,0,0,1,232.29,24.7Z"/><path class="f0fe58a3-014a-4da5-b0ef-a28c8eb31afd" d="M911.44,285.07,804,392.51A152,152,0,0,0,544.52,500a227.8,227.8,0,0,1-228,228C192.12,728,91,628.3,88.65,504.43A152,152,0,0,0,392.53,500,304,304,0,0,1,911.44,285.07Z"/><path class="adc21087-b54d-415c-8804-99b25d443dce" d="M392.53,500a152,152,0,0,1-303.88,4.43c-.05-1.47-.09-2.95-.09-4.43s0-3.17.09-4.77a152,152,0,0,1,80-129.19,155.92,155.92,0,0,0-9.83,45.13c-.85,12.88-3.09,56.91,26.09,98.62,25.58,36.52,60.62,50.37,73.84,55.35a165.87,165.87,0,0,0,53.82,10.77c1.4,0,2.71.08,3.93.08A76,76,0,0,0,392.53,500Z"/><path class="b741c7e8-7970-4585-a66f-429e1dffb345" d="M392.53,500a76,76,0,1,0-79.92,75.91,165.87,165.87,0,0,1-53.82-10.77c-13.22-5-48.26-18.83-73.84-55.35-29.18-41.71-26.94-85.74-26.09-98.62A155.92,155.92,0,0,1,168.69,366,152,152,0,0,1,392.53,500Z"/><path class="ffeb5e13-b586-4625-86d0-4c41493d392f" d="M392.53,500a152,152,0,0,1-303.88,4.43c-.05-1.47-.09-2.95-.09-4.43s0-3.17.09-4.77a152,152,0,0,1,80-129.19,155.92,155.92,0,0,0-9.83,45.13c-.85,12.88-3.09,56.91,26.09,98.62,25.58,36.52,60.62,50.37,73.84,55.35a165.87,165.87,0,0,0,53.82,10.77c1.4,0,2.71.08,3.93.08A76,76,0,0,0,392.53,500Z"/><path class="fba797c1-79d4-4a78-b466-6f0f79451761" d="M392.53,500a76,76,0,1,0-79.92,75.91,165.87,165.87,0,0,1-53.82-10.77c-13.22-5-48.26-18.83-73.84-55.35-29.18-41.71-26.94-85.74-26.09-98.62A155.92,155.92,0,0,1,168.69,366,152,152,0,0,1,392.53,500Z"/><path class="e95f9f2d-4613-4ff6-ac00-0d22c1bd0214" d="M696.5,804A303.43,303.43,0,0,1,453.33,682.38,227.68,227.68,0,0,0,544.52,500,152,152,0,0,0,804,607.49L911.44,714.93A303,303,0,0,1,696.5,804Z"/></svg>