<svg width="100" height="100" viewBox="0 0 100 100" fill="none" xmlns="http://www.w3.org/2000/svg">
<path d="M70.8333 0H29.1666C23.6433 0.00661607 18.3481 2.20367 14.4426 6.10925C10.537 10.0148 8.33993 15.31 8.33331 20.8333V79.1667C8.33993 84.69 10.537 89.9852 14.4426 93.8907C18.3481 97.7963 23.6433 99.9934 29.1666 100H70.8333C76.3566 99.9934 81.6518 97.7963 85.5574 93.8907C89.463 89.9852 91.66 84.69 91.6667 79.1667V20.8333C91.66 15.31 89.463 10.0148 85.5574 6.10925C81.6518 2.20367 76.3566 0.00661607 70.8333 0V0ZM29.1666 8.33333H70.8333C74.1485 8.33333 77.3279 9.65029 79.6722 11.9945C82.0164 14.3387 83.3333 17.5181 83.3333 20.8333V45.8333H16.6666V20.8333C16.6666 17.5181 17.9836 14.3387 20.3278 11.9945C22.672 9.65029 25.8514 8.33333 29.1666 8.33333ZM70.8333 91.6667H29.1666C25.8514 91.6667 22.672 90.3497 20.3278 88.0055C17.9836 85.6613 16.6666 82.4819 16.6666 79.1667V54.1667H83.3333V79.1667C83.3333 82.4819 82.0164 85.6613 79.6722 88.0055C77.3279 90.3497 74.1485 91.6667 70.8333 91.6667Z" fill="white"/>
<path d="M45.8334 29.1667H54.1667C55.2718 29.1667 56.3316 28.7277 57.113 27.9463C57.8944 27.1649 58.3334 26.1051 58.3334 25C58.3334 23.895 57.8944 22.8352 57.113 22.0538C56.3316 21.2724 55.2718 20.8334 54.1667 20.8334H45.8334C44.7283 20.8334 43.6685 21.2724 42.8871 22.0538C42.1057 22.8352 41.6667 23.895 41.6667 25C41.6667 26.1051 42.1057 27.1649 42.8871 27.9463C43.6685 28.7277 44.7283 29.1667 45.8334 29.1667Z" fill="white"/>
<path d="M54.1667 70.8334H45.8334C44.7283 70.8334 43.6685 71.2724 42.8871 72.0538C42.1057 72.8352 41.6667 73.895 41.6667 75C41.6667 76.1051 42.1057 77.1649 42.8871 77.9463C43.6685 78.7277 44.7283 79.1667 45.8334 79.1667H54.1667C55.2718 79.1667 56.3316 78.7277 57.113 77.9463C57.8944 77.1649 58.3334 76.1051 58.3334 75C58.3334 73.895 57.8944 72.8352 57.113 72.0538C56.3316 71.2724 55.2718 70.8334 54.1667 70.8334Z" fill="white"/>
</svg>
