<svg width="100" height="100" viewBox="0 0 100 100" fill="none" xmlns="http://www.w3.org/2000/svg">
<g clip-path="url(#clip0)">
<path d="M100 95.8336C100 96.9386 99.5611 97.9984 98.7797 98.7798C97.9983 99.5612 96.9385 100 95.8334 100H4.16674C3.06168 100 2.00187 99.5612 1.22047 98.7798C0.439064 97.9984 7.7168e-05 96.9386 7.7168e-05 95.8336C7.7168e-05 94.7285 0.439064 93.6687 1.22047 92.8873C2.00187 92.1059 3.06168 91.6669 4.16674 91.6669H95.8334C96.9385 91.6669 97.9983 92.1059 98.7797 92.8873C99.5611 93.6687 100 94.7285 100 95.8336ZM1.21258 35.6336C0.314753 33.9682 -0.101195 32.0857 0.0114123 30.1971C0.12402 28.3085 0.760727 26.4887 1.85008 24.9419C3.63032 22.3299 6.01443 20.1859 8.80008 18.6919L40.0542 2.42523C43.1262 0.827859 46.5377 -0.00610352 50.0001 -0.00610352C53.4625 -0.00610352 56.874 0.827859 59.9459 2.42523L91.1959 18.7044C93.9816 20.1984 96.3657 22.3424 98.1459 24.9544C99.2353 26.5012 99.872 28.321 99.9846 30.2096C100.097 32.0982 99.6812 33.9807 98.7834 35.6461C97.8168 37.4745 96.3671 39.0027 94.5921 40.0643C92.8171 41.126 90.7849 41.6803 88.7168 41.6669H87.5001V75.0002H91.6667C92.7718 75.0002 93.8316 75.4392 94.613 76.2206C95.3944 77.002 95.8334 78.0618 95.8334 79.1669C95.8334 80.272 95.3944 81.3318 94.613 82.1132C93.8316 82.8946 92.7718 83.3336 91.6667 83.3336H8.33341C7.22834 83.3336 6.16853 82.8946 5.38713 82.1132C4.60573 81.3318 4.16674 80.272 4.16674 79.1669C4.16674 78.0618 4.60573 77.002 5.38713 76.2206C6.16853 75.4392 7.22834 75.0002 8.33341 75.0002H12.5001V41.6669H11.2834C9.21324 41.6798 7.17927 41.124 5.40336 40.0601C3.62746 38.9962 2.17782 37.465 1.21258 35.6336ZM20.8334 75.0002H33.3334V41.6669H20.8334V75.0002ZM41.6667 41.6669V75.0002H58.3334V41.6669H41.6667ZM79.1667 41.6669H66.6667V75.0002H79.1667V41.6669ZM8.59591 31.7711C8.85734 32.2531 9.24638 32.6538 9.72042 32.9294C10.1945 33.205 10.7352 33.3448 11.2834 33.3336H88.7168C89.265 33.3448 89.8057 33.205 90.2797 32.9294C90.7538 32.6538 91.1428 32.2531 91.4043 31.7711C91.5947 31.4526 91.6868 31.0849 91.669 30.7143C91.6512 30.3436 91.5243 29.9865 91.3043 29.6877C90.2947 28.1874 88.9383 26.9525 87.3501 26.0877L56.1001 9.80856C54.2168 8.83116 52.1261 8.32095 50.0042 8.32095C47.8824 8.32095 45.7917 8.83116 43.9084 9.80856L12.6584 26.0877C11.0708 26.9553 9.71478 28.1913 8.70424 29.6919C8.48378 29.9894 8.35592 30.3453 8.33665 30.7151C8.31738 31.085 8.40756 31.4522 8.59591 31.7711Z" fill="white"/>
</g>
<defs>
<clipPath id="clip0">
<rect width="100" height="100" fill="white"/>
</clipPath>
</defs>
</svg>
