<svg width="100" height="100" viewBox="0 0 100 100" fill="none" xmlns="http://www.w3.org/2000/svg">
<g clip-path="url(#clip0)">
<path d="M54.1666 8.54583V4.16667C54.1666 3.0616 53.7276 2.00179 52.9462 1.22039C52.1648 0.438987 51.105 0 50 0C48.8949 0 47.8351 0.438987 47.0537 1.22039C46.2723 2.00179 45.8333 3.0616 45.8333 4.16667V8.54583C37.4448 9.29787 29.4267 12.3509 22.6624 17.3684C15.8981 22.386 10.6501 29.1734 7.49658 36.9828C4.34308 44.7923 3.40647 53.3207 4.78996 61.6284C6.17344 69.9361 9.82333 77.7007 15.3375 84.0667C13.1599 85.1439 11.3401 86.8278 10.0974 88.9155C8.85473 91.0031 8.2421 93.4055 8.33331 95.8333C8.33331 96.9384 8.7723 97.9982 9.5537 98.7796C10.3351 99.561 11.3949 100 12.5 100C13.605 100 14.6649 99.561 15.4463 98.7796C16.2277 97.9982 16.6666 96.9384 16.6666 95.8333C16.632 94.549 17.0931 93.3007 17.9542 92.3472C18.8154 91.3938 20.0105 90.8084 21.2916 90.7125C21.5782 90.658 21.8578 90.5713 22.125 90.4542C30.1064 96.6446 39.9201 100.004 50.0208 100.004C60.1215 100.004 69.9352 96.6446 77.9166 90.4542C78.1605 90.5665 78.4144 90.6558 78.675 90.7208C79.9606 90.8085 81.1628 91.3892 82.0307 92.3417C82.8986 93.2942 83.3653 94.5451 83.3333 95.8333C83.3333 96.9384 83.7723 97.9982 84.5537 98.7796C85.3351 99.561 86.3949 100 87.5 100C88.605 100 89.6648 99.561 90.4462 98.7796C91.2276 97.9982 91.6666 96.9384 91.6666 95.8333C91.7578 93.4055 91.1452 91.0031 89.9025 88.9155C88.6598 86.8278 86.8401 85.1439 84.6625 84.0667C90.1766 77.7007 93.8265 69.9361 95.21 61.6284C96.5935 53.3207 95.6569 44.7923 92.5034 36.9828C89.3499 29.1734 84.1018 22.386 77.3375 17.3684C70.5732 12.3509 62.5551 9.29787 54.1666 8.54583ZM12.5 54.1667C12.5 46.7499 14.6993 39.4996 18.8199 33.3328C22.9404 27.1659 28.7971 22.3595 35.6493 19.5212C42.5016 16.6829 50.0416 15.9403 57.3159 17.3872C64.5901 18.8342 71.272 22.4057 76.5165 27.6502C81.7609 32.8946 85.3325 39.5765 86.7794 46.8508C88.2264 54.1251 87.4837 61.6651 84.6455 68.5173C81.8072 75.3695 77.0007 81.2262 70.8338 85.3468C64.667 89.4673 57.4168 91.6667 50 91.6667C40.0581 91.6545 30.5269 87.6998 23.4969 80.6698C16.4669 73.6398 12.5121 64.1086 12.5 54.1667Z" fill="#7C4FF9"/>
<path d="M80.0626 -7.02515e-05C78.9575 -7.02515e-05 77.8977 0.438917 77.1163 1.22032C76.3349 2.00172 75.8959 3.06153 75.8959 4.1666C75.8959 5.27167 76.3349 6.33147 77.1163 7.11287C77.8977 7.89428 78.9575 8.33326 80.0626 8.33326C81.5155 8.22282 82.9758 8.40776 84.3553 8.87694C85.7349 9.34612 87.0051 10.0898 88.0895 11.0632C89.1738 12.0366 90.0498 13.2195 90.6646 14.5405C91.2794 15.8616 91.6203 17.2935 91.6668 18.7499C91.6668 19.855 92.1057 20.9148 92.8871 21.6962C93.6685 22.4776 94.7284 22.9166 95.8334 22.9166C96.9385 22.9166 97.9983 22.4776 98.7797 21.6962C99.5611 20.9148 100 19.855 100 18.7499C99.9468 16.202 99.3859 13.6903 98.3502 11.3617C97.3145 9.03316 95.8248 6.93454 93.9683 5.18861C92.1118 3.44269 89.9258 2.08454 87.5381 1.19361C85.1504 0.302687 82.609 -0.103122 80.0626 -7.02515e-05Z" fill="#7C4FF9"/>
<path d="M8.33333 18.7499C8.37978 17.2935 8.72068 15.8616 9.33549 14.5405C9.95031 13.2195 10.8263 12.0366 11.9106 11.0632C12.995 10.0898 14.2652 9.34612 15.6447 8.87694C17.0243 8.40776 18.4846 8.22282 19.9375 8.33326C21.0426 8.33326 22.1024 7.89428 22.8838 7.11287C23.6652 6.33147 24.1042 5.27167 24.1042 4.1666C24.1042 3.06153 23.6652 2.00172 22.8838 1.22032C22.1024 0.438917 21.0426 -7.02515e-05 19.9375 -7.02515e-05C17.3911 -0.103122 14.8497 0.302687 12.462 1.19361C10.0743 2.08454 7.88827 3.44269 6.03178 5.18861C4.17528 6.93454 2.68561 9.03316 1.64992 11.3617C0.61423 13.6903 0.0533177 16.202 0 18.7499C0 19.855 0.438987 20.9148 1.22039 21.6962C2.00179 22.4776 3.0616 22.9166 4.16667 22.9166C5.27174 22.9166 6.33154 22.4776 7.11295 21.6962C7.89435 20.9148 8.33333 19.855 8.33333 18.7499Z" fill="#7C4FF9"/>
<path d="M54.1667 48.275V29.1667C54.1667 28.0616 53.7277 27.0018 52.9463 26.2204C52.1649 25.439 51.1051 25 50 25C48.8949 25 47.8351 25.439 47.0537 26.2204C46.2723 27.0018 45.8333 28.0616 45.8333 29.1667V50C45.8336 51.105 46.2727 52.1646 47.0542 52.9458L59.5542 65.4458C60.34 66.2048 61.3925 66.6248 62.485 66.6153C63.5775 66.6058 64.6226 66.1676 65.3951 65.3951C66.1676 64.6225 66.6058 63.5775 66.6153 62.485C66.6248 61.3925 66.2048 60.34 65.4458 59.5542L54.1667 48.275Z" fill="#7C4FF9"/>
</g>
<defs>
<clipPath id="clip0">
<rect width="100" height="100" fill="white"/>
</clipPath>
</defs>
</svg>
