<svg width="200" height="54" viewBox="0 0 200 54" fill="none" xmlns="http://www.w3.org/2000/svg">
<path opacity="0.5" d="M9.40717 9.99634C10.0979 9.62134 10.7908 9.24848 11.4816 8.87134C10.7678 9.20284 10.075 9.57856 9.40717 9.99634Z" fill="black"/>
<path d="M52.8147 53.6271C48.7138 53.6316 44.6685 52.6713 41.0005 50.8224C37.3325 48.9736 34.1431 46.2872 31.6859 42.9771C34.1469 41.1178 36.1442 38.7057 37.5192 35.9323C38.8943 33.1589 39.6092 30.1006 39.6073 27C39.6083 29.6332 40.3835 32.2069 41.8349 34.3961C43.2863 36.5852 45.3488 38.2914 47.7617 39.2991C50.1747 40.3068 52.8297 40.5707 55.3914 40.0574C57.953 39.5442 60.3063 38.2769 62.1538 36.4157L71.4887 45.8271C69.0391 48.3034 66.1283 50.2672 62.9237 51.6058C59.719 52.9444 56.2835 53.6313 52.8147 53.6271Z" fill="#00FCCF"/>
<path d="M31.6858 11.0228C28.2483 15.6277 26.3934 21.2367 26.402 27C26.3874 23.515 25.0179 20.1747 22.5877 17.6964C20.1575 15.218 16.8604 13.7992 13.4041 13.7445C9.94791 13.6898 6.60819 15.0036 4.10205 17.4038C1.5959 19.804 0.123148 23.0993 0 26.5821C0.066777 23.2449 0.962941 19.9778 2.60642 17.0802C4.24991 14.1826 6.58818 11.7469 9.40712 9.99638C10.0979 9.62138 10.7908 9.24853 11.4815 8.87138C11.4815 8.87138 11.4922 8.87138 11.4985 8.87138C14.7449 7.36321 18.3353 6.76794 21.8897 7.14855C25.4441 7.52916 28.8304 8.87151 31.6901 11.0335L31.6858 11.0228Z" fill="#00FCCF"/>
<path d="M71.4886 8.17278L62.1538 17.5842C60.3063 15.723 57.953 14.4557 55.3913 13.9425C52.8297 13.4293 50.1746 13.6932 47.7617 14.7008C45.3488 15.7085 43.2863 17.4147 41.8348 19.6039C40.3834 21.793 39.6082 24.3668 39.6073 26.9999C39.6393 32.283 37.5932 37.3635 33.9173 41.1287C30.2414 44.8939 25.2352 47.0368 19.9953 47.0881C14.7554 47.1394 9.70885 45.0949 5.96108 41.4024C2.2133 37.7099 0.0697771 32.6705 0 27.3878C0.0870849 30.8929 1.54235 34.2219 4.0497 36.6516C6.55705 39.0813 9.91399 40.4156 13.3914 40.3645C16.8687 40.3134 20.1857 38.8811 22.6217 36.3788C25.0578 33.8765 26.4163 30.5062 26.402 26.9999C26.402 21.7334 27.951 16.5852 30.8532 12.2064C33.7554 7.82751 37.8803 4.41465 42.7064 2.39939C47.5324 0.38414 52.8428 -0.142989 57.9661 0.884667C63.0893 1.91232 67.7952 4.44861 71.4886 8.17278Z" fill="#7C4FF9"/>
<path d="M26.402 26.9999C26.4163 30.5061 25.0578 33.8765 22.6217 36.3788C20.1857 38.8811 16.8687 40.3134 13.3914 40.3645C9.91399 40.4155 6.55705 39.0813 4.0497 36.6516C1.54235 34.2219 0.0870849 30.8929 0 27.3878C0 27.2592 0 27.1285 0 26.9999C0 26.8713 0 26.7235 0 26.5821C0.071311 24.2462 0.751611 21.9705 1.97244 19.9839C3.19327 17.9973 4.91156 16.37 6.95439 15.2656C6.47813 16.5337 6.19161 17.8661 6.10422 19.2192C6.02558 20.3571 5.83216 24.2142 8.36567 27.8571C10.5889 31.0563 13.6346 32.2692 14.7823 32.7063C16.2783 33.2799 17.8585 33.5985 19.4583 33.6492C19.5794 33.6492 19.6942 33.6492 19.8004 33.6492C21.55 33.6486 23.2279 32.9481 24.4656 31.7014C25.7033 30.4548 26.3998 28.7638 26.402 26.9999Z" fill="#6944F2"/>
<path d="M26.4021 26.9999C26.4033 25.6974 26.0255 24.423 25.3155 23.3348C24.6055 22.2466 23.5945 21.3922 22.4077 20.8775C21.2208 20.3629 19.9103 20.2105 18.6385 20.4393C17.3666 20.6681 16.1892 21.268 15.2522 22.1647C14.3151 23.0614 13.6595 24.2156 13.3666 25.4842C13.0737 26.7528 13.1564 28.0802 13.6043 29.302C14.0522 30.5238 14.8458 31.5862 15.8867 32.3578C16.9276 33.1293 18.1702 33.5761 19.4604 33.6428C17.8607 33.5921 16.2805 33.2735 14.7845 32.6999C13.6368 32.2713 10.591 31.0499 8.36784 27.8506C5.83433 24.2078 6.02987 20.3506 6.10214 19.2128C6.18953 17.8597 6.47605 16.5273 6.95231 15.2592C8.96504 14.1715 11.2231 13.6286 13.506 13.6832C15.789 13.7378 18.0189 14.3882 19.9782 15.5709C21.9375 16.7537 23.5592 18.4283 24.6851 20.4313C25.8109 22.4344 26.4025 24.6976 26.4021 26.9999Z" fill="#6736E4"/>
<path d="M26.402 26.9999C26.4163 30.5061 25.0578 33.8765 22.6217 36.3788C20.1857 38.8811 16.8687 40.3134 13.3914 40.3645C9.91399 40.4155 6.55705 39.0813 4.0497 36.6516C1.54235 34.2219 0.0870849 30.8929 0 27.3878C0 27.2592 0 27.1285 0 26.9999C0 26.8713 0 26.7235 0 26.5821C0.071311 24.2462 0.751611 21.9705 1.97244 19.9839C3.19327 17.9973 4.91156 16.37 6.95439 15.2656C6.47813 16.5337 6.19161 17.8661 6.10422 19.2192C6.02558 20.3571 5.83216 24.2142 8.36567 27.8571C10.5889 31.0563 13.6346 32.2692 14.7823 32.7063C16.2783 33.2799 17.8585 33.5985 19.4583 33.6492C19.5794 33.6492 19.6942 33.6492 19.8004 33.6492C21.55 33.6486 23.2279 32.9481 24.4656 31.7014C25.7033 30.4548 26.3998 28.7638 26.402 26.9999Z" fill="url(#paint0_linear)"/>
<path d="M26.4021 26.9999C26.4033 25.6974 26.0255 24.423 25.3155 23.3348C24.6055 22.2466 23.5945 21.3922 22.4077 20.8775C21.2208 20.3629 19.9103 20.2105 18.6385 20.4393C17.3666 20.6681 16.1892 21.268 15.2522 22.1647C14.3151 23.0614 13.6595 24.2156 13.3666 25.4842C13.0737 26.7528 13.1564 28.0802 13.6043 29.302C14.0522 30.5238 14.8458 31.5862 15.8867 32.3578C16.9276 33.1293 18.1702 33.5761 19.4604 33.6428C17.8607 33.5921 16.2805 33.2735 14.7845 32.6999C13.6368 32.2713 10.591 31.0499 8.36784 27.8506C5.83433 24.2078 6.02987 20.3506 6.10214 19.2128C6.18953 17.8597 6.47605 16.5273 6.95231 15.2592C8.96504 14.1715 11.2231 13.6286 13.506 13.6832C15.789 13.7378 18.0189 14.3882 19.9782 15.5709C21.9375 16.7537 23.5592 18.4283 24.6851 20.4313C25.8109 22.4344 26.4025 24.6976 26.4021 26.9999Z" fill="url(#paint1_linear)"/>
<path d="M52.8147 53.6271C48.7138 53.6316 44.6685 52.6713 41.0005 50.8224C37.3325 48.9736 34.1431 46.2872 31.6859 42.9771C34.1469 41.1178 36.1442 38.7057 37.5192 35.9323C38.8943 33.1589 39.6092 30.1006 39.6073 27C39.6083 29.6332 40.3835 32.2069 41.8349 34.3961C43.2863 36.5852 45.3488 38.2914 47.7617 39.2991C50.1747 40.3068 52.8297 40.5707 55.3914 40.0574C57.953 39.5442 60.3063 38.2769 62.1538 36.4157L71.4887 45.8271C69.0391 48.3034 66.1283 50.2672 62.9237 51.6058C59.719 52.9444 56.2835 53.6313 52.8147 53.6271Z" fill="url(#paint2_linear)"/>
<path d="M74.1093 22.8342C74.6797 21.7572 75.549 20.8711 76.6109 20.2842C77.741 19.6755 79.0069 19.3686 80.2879 19.3928C82.0577 19.3928 83.537 19.8599 84.7258 20.7942C85.9146 21.7285 86.6939 23.0457 87.0638 24.7457H82.4622C82.0754 23.6571 81.3258 23.1135 80.2135 23.1149C79.8464 23.1032 79.4819 23.1818 79.1516 23.3438C78.8213 23.5058 78.5351 23.7465 78.3176 24.0449C77.8458 24.6635 77.6099 25.5507 77.6099 26.7064C77.6099 27.8621 77.8458 28.7499 78.3176 29.3699C78.5351 29.6684 78.8213 29.9091 79.1516 30.0711C79.4819 30.2331 79.8464 30.3117 80.2135 30.2999C81.3258 30.2999 82.0754 29.7564 82.4622 28.6692H87.0638C86.6925 30.3349 85.9082 31.6428 84.7109 32.5928C83.5136 33.5428 82.0385 34.0185 80.2858 34.0199C79.0046 34.0452 77.7385 33.7382 76.6088 33.1285C75.547 32.5424 74.6777 31.657 74.1072 30.5807C73.4871 29.3868 73.1784 28.0536 73.2102 26.7064C73.1788 25.3596 73.4882 24.027 74.1093 22.8342Z" fill="#FBFBFB"/>
<path d="M89.3252 22.8342C89.8185 21.7895 90.5933 20.9059 91.5611 20.2842C92.5087 19.6891 93.6053 19.3798 94.7216 19.3927C95.631 19.3721 96.5308 19.5829 97.338 20.0056C98.0466 20.3751 98.644 20.9293 99.0681 21.6106V19.5963H103.391V33.8163H99.0681V31.8042C98.6301 32.4829 98.0253 33.0358 97.3125 33.4092C96.5061 33.8295 95.608 34.0395 94.7004 34.0199C93.5906 34.0304 92.5017 33.7163 91.5654 33.1156C90.5969 32.4853 89.8225 31.5946 89.3294 30.5442C88.7615 29.3404 88.4798 28.0197 88.5069 26.687C88.476 25.3558 88.7563 24.0359 89.3252 22.8342ZM98.1712 24.1327C97.8887 23.8358 97.5498 23.5993 97.1747 23.4373C96.7996 23.2754 96.396 23.1913 95.9879 23.1901C95.5798 23.1889 95.1757 23.2706 94.7997 23.4303C94.4236 23.5901 94.0833 23.8246 93.7992 24.1199C93.1998 24.7413 92.9008 25.5949 92.9023 26.6806C92.9037 27.7663 93.2027 28.6285 93.7992 29.267C94.0794 29.5678 94.4176 29.8077 94.793 29.9721C95.1684 30.1365 95.5731 30.222 95.9824 30.2232C96.3917 30.2244 96.797 30.1413 97.1733 29.9791C97.5497 29.8169 97.8892 29.579 98.1712 29.2799C98.7705 28.6527 99.0695 27.7956 99.0681 26.7085C99.0667 25.6213 98.7677 24.7627 98.1712 24.1327Z" fill="#FBFBFB"/>
<path d="M106.488 22.8342C106.982 21.789 107.759 20.9053 108.728 20.2842C109.676 19.689 110.772 19.3797 111.889 19.3928C112.77 19.3821 113.64 19.5834 114.429 19.9799C115.158 20.3379 115.78 20.8824 116.235 21.5592V14.9592H120.558V33.8164H116.231V31.7785C115.813 32.4717 115.213 33.0358 114.499 33.4092C113.692 33.8303 112.793 34.0403 111.884 34.0199C110.768 34.033 109.671 33.7189 108.728 33.1157C107.76 32.4853 106.985 31.5947 106.492 30.5442C105.924 29.3405 105.643 28.0198 105.67 26.6871C105.639 25.3559 105.919 24.036 106.488 22.8342ZM115.334 24.1328C115.051 23.8358 114.712 23.5992 114.337 23.4372C113.962 23.2753 113.558 23.1911 113.15 23.1899C112.741 23.1887 112.337 23.2705 111.961 23.4303C111.585 23.59 111.244 23.8246 110.96 24.1199C110.363 24.7414 110.064 25.5949 110.063 26.6807C110.062 27.7664 110.361 28.6285 110.96 29.2671C111.24 29.5676 111.579 29.8074 111.954 29.9716C112.33 30.1359 112.735 30.2212 113.144 30.2224C113.554 30.2236 113.959 30.1406 114.335 29.9786C114.712 29.8166 115.052 29.5788 115.334 29.2799C115.931 28.6528 116.23 27.7957 116.231 26.7085C116.232 25.6214 115.933 24.7628 115.334 24.1328Z" fill="#FBFBFB"/>
<path d="M129.753 20.0056C130.555 19.5819 131.451 19.371 132.357 19.3928C133.47 19.3815 134.563 19.6907 135.509 20.2842C136.476 20.9065 137.251 21.79 137.744 22.8342C138.314 24.0336 138.596 25.3512 138.567 26.6806C138.594 28.0133 138.312 29.334 137.744 30.5378C137.251 31.5878 136.476 32.4782 135.509 33.1092C134.564 33.7129 133.466 34.027 132.348 34.0135C131.452 34.0317 130.566 33.824 129.77 33.4092C129.062 33.04 128.458 32.4968 128.014 31.8299V40.5942H123.687V19.5942H128.01V21.6085C128.446 20.9328 129.046 20.3809 129.753 20.0056ZM133.279 24.1199C132.995 23.8183 132.652 23.5798 132.271 23.4197C131.891 23.2595 131.481 23.1813 131.069 23.1899C130.659 23.1833 130.252 23.2638 129.875 23.4263C129.498 23.5887 129.16 23.8295 128.881 24.1328C128.282 24.7628 127.983 25.6199 127.985 26.7042C127.986 27.7885 128.285 28.6456 128.881 29.2756C129.165 29.5748 129.505 29.8127 129.883 29.9749C130.26 30.1371 130.666 30.2201 131.077 30.2189C131.487 30.2177 131.893 30.1323 132.269 29.9679C132.645 29.8035 132.985 29.5636 133.266 29.2628C133.874 28.6256 134.177 27.7635 134.176 26.6763C134.174 25.5892 133.876 24.737 133.279 24.1199Z" fill="#FBFBFB"/>
<path d="M147.067 20.1192C147.833 19.6667 148.708 19.4333 149.596 19.4442V24.0556H148.408C147.328 24.0556 146.519 24.2899 145.98 24.7585C145.442 25.2271 145.172 26.0456 145.171 27.2142V33.8142H140.85V19.5964H145.171V21.9664C145.652 21.2106 146.301 20.5782 147.067 20.1192Z" fill="#FBFBFB"/>
<path d="M151.983 17.4428C151.751 17.2336 151.566 16.9763 151.442 16.6886C151.318 16.4008 151.256 16.0895 151.262 15.7757C151.254 15.4575 151.315 15.1414 151.439 14.8489C151.563 14.5564 151.749 14.2944 151.983 14.0807C152.491 13.6203 153.158 13.3781 153.84 13.4057C154.516 13.3807 155.174 13.6229 155.675 14.0807C155.908 14.2949 156.093 14.557 156.217 14.8495C156.34 15.1419 156.401 15.4578 156.393 15.7757C156.399 16.0893 156.338 16.4005 156.214 16.6881C156.09 16.9758 155.906 17.2332 155.675 17.4428C155.175 17.902 154.516 18.1451 153.84 18.12C153.157 18.1479 152.49 17.9048 151.983 17.4428ZM155.989 19.5857V33.8057H151.662V19.5964L155.989 19.5857Z" fill="#FBFBFB"/>
<path d="M181.303 21.0492C182.34 22.1206 182.859 23.607 182.859 25.5085V33.8163H178.561V26.102C178.561 25.1849 178.321 24.4756 177.841 23.9742C177.36 23.4728 176.699 23.222 175.855 23.222C175.014 23.222 174.353 23.4728 173.872 23.9742C173.392 24.4756 173.152 25.1849 173.152 26.102V33.8163H168.854V26.102C168.854 25.1849 168.614 24.4756 168.134 23.9742C167.653 23.4728 166.992 23.222 166.151 23.222C165.301 23.222 164.639 23.4728 164.166 23.9742C163.692 24.4756 163.452 25.1849 163.445 26.102V33.8163H159.124V19.5963H163.445V21.3813C163.896 20.7761 164.486 20.2906 165.165 19.967C165.914 19.6086 166.736 19.4296 167.566 19.4442C168.558 19.4303 169.536 19.6707 170.41 20.1428C171.236 20.5938 171.916 21.2753 172.368 22.1056C172.868 21.3127 173.554 20.6562 174.365 20.1942C175.204 19.7014 176.158 19.446 177.129 19.4549C178.874 19.4478 180.266 19.9792 181.303 21.0492Z" fill="#FBFBFB"/>
<path d="M199.11 27.752H189.333C189.401 28.6349 189.684 29.3099 190.183 29.777C190.679 30.2438 191.337 30.4954 192.015 30.4777C193.095 30.4777 193.845 30.0191 194.266 29.102H198.865C198.634 30.0287 198.198 30.8907 197.59 31.6241C196.962 32.3807 196.171 32.9825 195.278 33.3834C194.299 33.8208 193.238 34.04 192.168 34.0263C190.883 34.0507 189.613 33.7438 188.478 33.1349C187.409 32.55 186.53 31.665 185.949 30.587C185.318 29.3943 185.002 28.0579 185.031 26.7063C185 25.3599 185.309 24.0276 185.928 22.8341C186.502 21.7545 187.376 20.868 188.444 20.2842C189.588 19.6741 190.866 19.3674 192.16 19.3927C193.425 19.3665 194.676 19.6612 195.798 20.2499C196.847 20.8157 197.712 21.6742 198.289 22.7227C198.906 23.8715 199.215 25.1625 199.186 26.4684C199.185 26.8974 199.16 27.326 199.11 27.752ZM194.763 25.3306C194.778 24.995 194.717 24.6605 194.585 24.3519C194.454 24.0433 194.256 23.7684 194.004 23.5477C193.476 23.0973 192.8 22.8606 192.109 22.8834C191.441 22.8653 190.789 23.0939 190.276 23.5263C189.757 23.9928 189.428 24.6374 189.354 25.3349L194.763 25.3306Z" fill="#FBFBFB"/>
<defs>
<linearGradient id="paint0_linear" x1="11.3328" y1="19.6478" x2="17.677" y2="46.82" gradientUnits="userSpaceOnUse">
<stop stop-color="#5A37EF" stop-opacity="0"/>
<stop offset="1" stop-color="#5A37EF"/>
</linearGradient>
<linearGradient id="paint1_linear" x1="20.4913" y1="12.6963" x2="10.1203" y2="35.2738" gradientUnits="userSpaceOnUse">
<stop stop-color="#5529DD" stop-opacity="0"/>
<stop offset="1" stop-color="#5529DD"/>
</linearGradient>
<linearGradient id="paint2_linear" x1="69.3909" y1="56.415" x2="27.7796" y2="27.4184" gradientUnits="userSpaceOnUse">
<stop stop-color="#00FAB9" stop-opacity="0"/>
<stop offset="1" stop-color="#00FAB9"/>
</linearGradient>
</defs>
</svg>
